<svg xmlns="http://www.w3.org/2000/svg" viewBox="95 86 180 104">
	<defs>
		<linearGradient id="g1" gradientUnits="userSpaceOnUse" x1="177.63" y1="250.81" x2="277.77" y2="158.49" gradientTransform="matrix(1 0 0 -1 0 277)">
			<stop offset="0" style="stop-color:#373894"/>
			<stop offset="0.18" style="stop-color:#0081B1"/>
			<stop offset="0.627" style="stop-color:#E63471"/>
			<stop offset="0.8873" style="stop-color:#FDCB1F"/>
		</linearGradient>
		<linearGradient id="g2" gradientUnits="userSpaceOnUse" x1="160.79" y1="232.04" x2="260.92" y2="139.72" gradientTransform="matrix(1 0 0 -1 0 277)">
			<stop offset="0" style="stop-color:#373894"/>
			<stop offset="0.18" style="stop-color:#0081B1"/>
			<stop offset="0.627" style="stop-color:#E63471"/>
			<stop offset="0.8873" style="stop-color:#FDCB1F"/>
		</linearGradient>
		<linearGradient id="g3" gradientUnits="userSpaceOnUse" x1="127.05" y1="194.46" x2="227.18" y2="102.14" gradientTransform="matrix(1 0 0 -1 0 277)">
			<stop offset="0" style="stop-color:#373894"/>
			<stop offset="0.18" style="stop-color:#0081B1"/>
			<stop offset="0.627" style="stop-color:#E63471"/>
			<stop offset="0.8873" style="stop-color:#FDCB1F"/>
		</linearGradient>
		<linearGradient id="g4" gradientUnits="userSpaceOnUse" x1="110.16" y1="175.64" x2="210.29" y2="83.32" gradientTransform="matrix(1 0 0 -1 0 277)">
			<stop offset="0" style="stop-color:#373894"/>
			<stop offset="0.18" style="stop-color:#0081B1"/>
			<stop offset="0.627" style="stop-color:#E63471"/>
			<stop offset="0.8873" style="stop-color:#FDCB1F"/>
		</linearGradient>
		<linearGradient id="g5" gradientUnits="userSpaceOnUse" x1="138.34" y1="211.59" x2="240.98" y2="116.96" gradientTransform="matrix(1 0 0 -1 0 277)">
			<stop offset="0" style="stop-color:#373894"/>
			<stop offset="0.18" style="stop-color:#0081B1"/>
			<stop offset="0.627" style="stop-color:#E63471"/>
			<stop offset="0.8873" style="stop-color:#FDCB1F"/>
		</linearGradient>
		<linearGradient id="g6" gradientUnits="userSpaceOnUse" x1="131.77" y1="201.68" x2="233.32" y2="108.05" gradientTransform="matrix(1 0 0 -1 0 277)">
			<stop offset="0" style="stop-color:#373894"/>
			<stop offset="0.18" style="stop-color:#0081B1"/>
			<stop offset="0.627" style="stop-color:#E63471"/>
			<stop offset="0.8873" style="stop-color:#FDCB1F"/>
		</linearGradient>
		<linearGradient id="g7" gradientUnits="userSpaceOnUse" x1="103.95" y1="169.09" x2="204.76" y2="76.15" gradientTransform="matrix(1 0 0 -1 0 277)">
			<stop offset="0" style="stop-color:#373894"/>
			<stop offset="0.18" style="stop-color:#0081B1"/>
			<stop offset="0.627" style="stop-color:#E63471"/>
			<stop offset="0.8873" style="stop-color:#FDCB1F"/>
		</linearGradient>
		<linearGradient id="g8" gradientUnits="userSpaceOnUse" x1="127.88" y1="195.40" x2="228.01" y2="103.07" gradientTransform="matrix(1 0 0 -1 0 277)">
			<stop offset="0" style="stop-color:#373894"/>
			<stop offset="0.18" style="stop-color:#0081B1"/>
			<stop offset="0.627" style="stop-color:#E63471"/>
			<stop offset="0.8873" style="stop-color:#FDCB1F"/>
		</linearGradient>
		<linearGradient id="g9" gradientUnits="userSpaceOnUse" x1="98.00" y1="163.66" x2="199.68" y2="69.92" gradientTransform="matrix(1 0 0 -1 0 277)">
			<stop offset="0" style="stop-color:#373894"/>
			<stop offset="0.18" style="stop-color:#0081B1"/>
			<stop offset="0.627" style="stop-color:#E63471"/>
			<stop offset="0.8873" style="stop-color:#FDCB1F"/>
		</linearGradient>
	</defs>
	<g>
		<path fill="url(#g1)" d="M263.1,91.5c6.8,0.5,12,6.5,11.5,13.5s-6.4,12.3-13.2,11.8c-6.8-0.5-11.9-6.5-11.5-13.5C250.4,96.3,256.3,91,263.1,91.5z"/>
		<path fill="url(#g2)" d="M225.9,91.5c6.8,0.5,12,6.5,11.5,13.5s-6.4,12.3-13.2,11.8s-11.9-6.5-11.5-13.5C213.2,96.3,219.1,91,225.9,91.5z"/>
		<path fill="url(#g3)" d="M151.4,91.5c6.8,0.5,12,6.5,11.5,13.5s-6.4,12.3-13.2,11.8s-11.9-6.5-11.5-13.5C138.7,96.3,144.5,91,151.4,91.5z"/>
		<path fill="url(#g4)" d="M114.1,91.5c6.8,0.5,12,6.5,11.5,13.5s-6.4,12.3-13.2,11.8c-6.8-0.5-11.9-6.5-11.5-13.5C101.4,96.3,107.3,91,114.1,91.5z"/>
		<path fill="url(#g5)" d="M206.1,181.1L206.1,181.1c-5.1-3.9-6.1-11.2-2.3-16.4l32.8-44.9c3.8-5.2,11-6.2,16-2.4l0,0c5.1,3.9,6.1,11.2,2.3,16.4l-32.8,44.9C218.3,184,211.2,185,206.1,181.1z"/>
		<path fill="url(#g6)" d="M184.9,159.1L184.9,159.1c-5.1-3.9-6.1-11.2-2.3-16.4l16.7-22.9c3.8-5.2,11-6.2,16-2.4l0,0c5.1,3.9,6.1,11.2,2.3,16.4l-16.7,23C197.1,162,189.9,163,184.9,159.1z"/>
		<path fill="url(#g7)" d="M119.5,146.5L119.5,146.5c-5.1-3.9-6.1-11.2-2.3-16.4l7.5-10.3c3.8-5.2,11-6.2,16-2.4l0,0c5.1,3.9,6.1,11.2,2.3,16.4l-7.5,10.3C131.7,149.4,124.6,150.4,119.5,146.5z"/>
		<path fill="url(#g8)" d="M174.5,111.1c6.8,0.5,12,6.5,11.5,13.5c-0.5,7-6.4,12.3-13.2,11.8c-6.8-0.5-11.9-6.5-11.5-13.5C161.8,115.9,167.7,110.6,174.5,111.1z"/>
		<path fill="url(#g9)" d="M131.5,181.1L131.5,181.1c-5.1-3.9-6.1-11.2-2.3-16.4l18.5-25.4c3.8-5.2,11-6.2,16-2.4l0,0c5.1,3.9,6.1,11.2,2.3,16.4l-18.5,25.4C143.8,184,136.6,185,131.5,181.1z"/>
	</g>
</svg>
